<svg xmlns="http://www.w3.org/2000/svg" width="16" height="13.714" viewBox="0 0 16 13.714"><defs><style>.a{fill:#337ab7;}</style></defs><g transform="translate(-32 -64)"><path class="a" d="M321.714,131.429A1.714,1.714,0,1,0,320,129.714,1.715,1.715,0,0,0,321.714,131.429Z" transform="translate(-277.714 -61.714)"/><path class="a" d="M47,64H33a1,1,0,0,0-1,1.011V76.7a1,1,0,0,0,1,1.011H47A1,1,0,0,0,48,76.7V65.011A1,1,0,0,0,47,64Zm-3.682,7.061a.613.613,0,0,0-.457-.221.706.706,0,0,0-.457.2l-.668.564a.67.67,0,0,1-.411.168.591.591,0,0,1-.393-.146c-.036-.032-.1-.093-.154-.146L38.857,69.4a.788.788,0,0,0-.6-.268.811.811,0,0,0-.6.279l-4.518,5.45v-9.3a.471.471,0,0,1,.468-.418H46.386a.453.453,0,0,1,.461.429l.011,9.3Z"/></g></svg>