<svg xmlns="http://www.w3.org/2000/svg" width="20.122" height="20.122" viewBox="0 0 20.122 20.122"><defs><style>.a{fill:#e1e1e1;}</style></defs><path class="a" d="M18.445,1.886H15.72V.629a.629.629,0,0,0-1.258,0V1.886H10.69V.629a.629.629,0,0,0-1.258,0V1.886H5.659V.629A.629.629,0,0,0,4.4.629V1.886H1.677A1.676,1.676,0,0,0,0,3.563V18.445a1.677,1.677,0,0,0,1.677,1.677H18.445a1.676,1.676,0,0,0,1.676-1.677V3.563A1.676,1.676,0,0,0,18.445,1.886Zm.419,16.558a.42.42,0,0,1-.419.419H1.677a.42.42,0,0,1-.419-.419V3.563a.42.42,0,0,1,.419-.419H4.4V4.4a.629.629,0,1,0,1.258,0V3.144H9.432V4.4a.629.629,0,0,0,1.258,0V3.144h3.773V4.4a.629.629,0,0,0,1.258,0V3.144h2.725a.419.419,0,0,1,.419.419Z"/><rect class="a" width="3" height="2" transform="translate(4 7.122)"/><rect class="a" width="3" height="1" transform="translate(4 11.122)"/><rect class="a" width="3" height="2" transform="translate(4 14.122)"/><rect class="a" width="2" height="2" transform="translate(9 14.122)"/><rect class="a" width="2" height="1" transform="translate(9 11.122)"/><rect class="a" width="2" height="2" transform="translate(9 7.122)"/><rect class="a" width="3" height="2" transform="translate(13 14.122)"/><rect class="a" width="3" height="1" transform="translate(13 11.122)"/><rect class="a" width="3" height="2" transform="translate(13 7.122)"/></svg>