<svg xmlns="http://www.w3.org/2000/svg" width="31.989" height="29.35" viewBox="0 0 31.989 29.35"><defs><style>.a{fill:#f58320;}</style></defs><path class="a" d="M25.192,3a9.578,9.578,0,0,0-7.2,3.343A9.578,9.578,0,0,0,10.8,3,8.712,8.712,0,0,0,2,11.8c0,6.046,5.438,10.972,13.675,18.458l2.319,2.1,2.319-2.111c8.237-7.469,13.675-12.4,13.675-18.442A8.712,8.712,0,0,0,25.192,3ZM18.154,27.872l-.16.16-.16-.16C10.221,20.978,5.2,16.419,5.2,11.8a5.466,5.466,0,0,1,5.6-5.6,6.253,6.253,0,0,1,5.71,3.775H19.5A6.213,6.213,0,0,1,25.192,6.2a5.466,5.466,0,0,1,5.6,5.6C30.79,16.419,25.768,20.978,18.154,27.872Z" transform="translate(-2 -3)"/></svg>