<svg xmlns="http://www.w3.org/2000/svg" xmlns:xlink="http://www.w3.org/1999/xlink"><symbol id="icon-arr-left" viewBox="0 0 15 26"><path fill-rule="evenodd" clip-rule="evenodd" d="M0 12.847l2.341 2.341.009-.008 9.941 9.941 2.341-2.34-9.941-9.942 9.941-9.941-2.34-2.342-9.942 9.942-.009-.009L0 12.83l.009.009-.009.008z"/></symbol><symbol id="icon-arr-right" viewBox="0 0 15 26"><path fill-rule="evenodd" clip-rule="evenodd" d="M14.632 12.83l-2.341-2.34-.008.008L2.34.556 0 2.898l9.941 9.94L0 22.78l2.341 2.341 9.941-9.941.009.009 2.341-2.342-.008-.008.008-.009z"/></symbol> <view id="icon-arr-left-view-dimgrey" viewBox="0 0 15 26"/><view id="icon-arr-left-view-white" viewBox="0 36 15 26"/><view id="icon-arr-right-view-dimgrey" viewBox="0 72 15 26"/><view id="icon-arr-right-view-white" viewBox="0 108 15 26"/> <use xlink:href="#icon-arr-left" x="0" y="0" width="15" height="26" style="fill:#696969"/><use xlink:href="#icon-arr-left" x="0" y="36" width="15" height="26" style="fill:#ffffff"/><use xlink:href="#icon-arr-right" x="0" y="72" width="15" height="26" style="fill:#696969"/><use xlink:href="#icon-arr-right" x="0" y="108" width="15" height="26" style="fill:#ffffff"/></svg>