<svg xmlns="http://www.w3.org/2000/svg" xmlns:xlink="http://www.w3.org/1999/xlink"><symbol id="icon-arr-left" viewBox="0 0 15 26"><path fill-rule="evenodd" clip-rule="evenodd" d="M0 12.847l2.341 2.341.009-.008 9.941 9.941 2.341-2.34-9.941-9.942 9.941-9.941-2.34-2.342-9.942 9.942-.009-.009L0 12.83l.009.009-.009.008z"/></symbol><symbol id="icon-arr-right" viewBox="0 0 15 26"><path fill-rule="evenodd" clip-rule="evenodd" d="M14.632 12.83l-2.341-2.34-.008.008L2.34.556 0 2.898l9.941 9.94L0 22.78l2.341 2.341 9.941-9.941.009.009 2.341-2.342-.008-.008.008-.009z"/></symbol><symbol id="icon-menu-open" viewBox="0 0 32 19"><path d="M0 16h32v3H0v-3zm0-8h32v3H0V8zm0-8h32v3H0V0z" fill-rule="evenodd"/></symbol> <view id="icon-arr-left-view-black" viewBox="0 0 15 26"/><view id="icon-arr-left-view-dimgrey" viewBox="0 36 15 26"/><view id="icon-arr-left-view-white" viewBox="0 72 15 26"/><view id="icon-arr-right-view-black" viewBox="0 108 15 26"/><view id="icon-arr-right-view-dimgrey" viewBox="0 144 15 26"/><view id="icon-arr-right-view-white" viewBox="0 180 15 26"/><view id="icon-menu-open-view-black" viewBox="0 216 32 19"/><view id="icon-menu-open-view-dimgrey" viewBox="0 245 32 19"/><view id="icon-menu-open-view-white" viewBox="0 274 32 19"/> <use xlink:href="#icon-arr-left" x="0" y="0" width="15" height="26" style="fill:#0f0f0f"/><use xlink:href="#icon-arr-left" x="0" y="36" width="15" height="26" style="fill:#696969"/><use xlink:href="#icon-arr-left" x="0" y="72" width="15" height="26" style="fill:#ffffff"/><use xlink:href="#icon-arr-right" x="0" y="108" width="15" height="26" style="fill:#0f0f0f"/><use xlink:href="#icon-arr-right" x="0" y="144" width="15" height="26" style="fill:#696969"/><use xlink:href="#icon-arr-right" x="0" y="180" width="15" height="26" style="fill:#ffffff"/><use xlink:href="#icon-menu-open" x="0" y="216" width="32" height="19" style="fill:#0f0f0f"/><use xlink:href="#icon-menu-open" x="0" y="245" width="32" height="19" style="fill:#696969"/><use xlink:href="#icon-menu-open" x="0" y="274" width="32" height="19" style="fill:#ffffff"/></svg>